<?xml version="1.0" standalone="no"?>
<!DOCTYPE svg PUBLIC "-//W3C//DTD SVG 20010904//EN"
 "http://www.w3.org/TR/2001/REC-SVG-20010904/DTD/svg10.dtd">
<svg version="1.0" xmlns="http://www.w3.org/2000/svg"
 width="2128.000000pt" height="2288.000000pt" viewBox="0 0 2128.000000 2288.000000"
 preserveAspectRatio="xMidYMid meet">

<g transform="translate(0.000000,2288.000000) scale(0.100000,-0.100000)"
fill="#000000" stroke="none">
<path d="M3200 21665 c-516 -71 -941 -274 -1296 -618 -349 -337 -552 -723
-627 -1191 l-22 -141 0 -7085 c0 -6767 1 -7090 18 -7205 70 -468 267 -866 587
-1185 170 -171 356 -301 595 -416 222 -107 418 -165 680 -203 138 -19 215 -20
6180 -24 3322 -2 6097 -1 6167 1 l128 5 -6 26 c-3 14 -98 328 -210 696 -360
1177 -342 1115 -327 1115 13 0 62 -39 174 -137 101 -87 450 -387 634 -543 352
-299 649 -558 810 -704 61 -56 211 -191 335 -301 123 -110 291 -261 374 -335
191 -172 358 -317 516 -450 149 -124 665 -555 1330 -1111 513 -428 772 -640
777 -636 1 2 4 4143 5 9203 3 7604 1 9214 -10 9284 -69 443 -223 802 -483
1125 -188 235 -477 468 -749 605 -156 78 -384 157 -620 212 l-95 23 -7385 1
c-6034 2 -7402 0 -7480 -11z m5808 -4885 c28 -27 52 -53 52 -58 0 -4 -60 -23
-132 -42 -860 -215 -1773 -619 -2328 -1029 -136 -100 -291 -224 -286 -228 2
-2 28 8 57 22 234 115 707 309 984 403 856 290 1675 457 2570 524 219 16 1036
16 1245 -1 903 -70 1662 -221 2470 -491 374 -125 820 -303 1119 -447 73 -35
135 -62 138 -60 10 11 -341 259 -542 385 -556 346 -1272 660 -1992 873 -46 13
-83 29 -83 34 0 6 34 44 75 85 l74 74 153 -12 c690 -52 1372 -250 2023 -586
319 -165 742 -435 795 -508 38 -52 252 -476 360 -713 541 -1186 933 -2529
1100 -3766 56 -415 79 -713 104 -1334 l6 -130 -203 -200 c-260 -257 -446 -410
-703 -578 -645 -419 -1394 -656 -2242 -708 -101 -6 -193 -8 -205 -5 -32 9
-342 382 -617 742 -86 113 -87 114 -66 114 28 0 234 69 406 137 530 207 1013
520 1325 859 106 114 145 162 145 174 0 4 -51 -23 -112 -60 -304 -182 -1033
-539 -1313 -643 -312 -115 -603 -198 -1105 -312 -251 -58 -538 -100 -910 -136
-193 -19 -295 -22 -715 -23 -516 -1 -619 4 -960 49 -462 61 -829 143 -1320
297 -428 134 -1331 495 -1675 668 -118 60 -216 107 -218 106 -7 -8 124 -160
220 -256 371 -371 859 -666 1438 -867 85 -29 161 -56 168 -58 9 -3 -18 -41
-75 -107 -120 -138 -345 -413 -489 -597 l-118 -151 -75 0 c-95 0 -380 25 -526
45 -574 82 -1070 242 -1517 491 -146 80 -394 247 -523 351 -206 165 -406 373
-558 582 l-47 63 0 162 c0 258 31 736 71 1086 119 1060 397 2179 812 3265 155
405 287 707 493 1122 185 375 168 352 371 490 402 273 913 529 1362 683 474
161 989 262 1371 268 l95 1 53 -49z"/>
<path d="M8566 13059 c-306 -32 -578 -190 -771 -447 -255 -340 -298 -813 -108
-1200 249 -510 828 -752 1344 -562 157 58 275 135 399 259 180 180 286 395
325 658 20 136 19 208 -5 345 -45 264 -151 470 -332 644 -137 132 -282 216
-459 268 -77 22 -249 48 -296 45 -10 -1 -53 -5 -97 -10z"/>
<path d="M12512 13059 c-166 -16 -350 -81 -492 -174 -156 -102 -318 -293 -400
-469 -125 -267 -144 -599 -50 -870 97 -283 326 -538 594 -662 173 -79 371
-114 542 -95 687 77 1136 745 963 1430 -98 388 -392 695 -771 805 -74 21 -252
49 -290 45 -7 -1 -50 -5 -96 -10z"/>
</g>
</svg>
