<?xml version="1.0" standalone="no"?>
<!DOCTYPE svg PUBLIC "-//W3C//DTD SVG 20010904//EN"
 "http://www.w3.org/TR/2001/REC-SVG-20010904/DTD/svg10.dtd">
<svg version="1.0" xmlns="http://www.w3.org/2000/svg"
 width="1001.000000pt" height="1000.000000pt" viewBox="0 0 1001.000000 1000.000000"
 preserveAspectRatio="xMidYMid meet">

<g transform="translate(0.000000,1000.000000) scale(0.100000,-0.100000)"
fill="#000000" stroke="none">
<path d="M2935 8488 c-2 -7 -324 -1259 -716 -2782 -494 -1922 -708 -2770 -700
-2775 19 -12 5552 -1433 5558 -1428 9 10 1435 5559 1429 5564 -5 5 -5444 1408
-5534 1428 -23 5 -33 3 -37 -7z m2209 -2944 c292 -75 534 -139 538 -143 7 -6
-259 -1059 -271 -1073 -7 -8 -1060 258 -1074 271 -7 7 263 1081 272 1081 3 0
243 -61 535 -136z"/>
</g>
</svg>
