<?xml version="1.0" standalone="no"?>
<!DOCTYPE svg PUBLIC "-//W3C//DTD SVG 20010904//EN"
 "http://www.w3.org/TR/2001/REC-SVG-20010904/DTD/svg10.dtd">
<svg version="1.0" xmlns="http://www.w3.org/2000/svg"
 width="3000.000000pt" height="3000.000000pt" viewBox="0 0 3000.000000 3000.000000"
 preserveAspectRatio="xMidYMid meet">

<g transform="translate(0.000000,3000.000000) scale(0.100000,-0.100000)"
fill="#000000" stroke="none">
<path d="M3800 29993 c-1266 -96 -2410 -761 -3110 -1808 -365 -546 -577 -1123
-667 -1810 -17 -135 -18 -561 -18 -11375 0 -10814 1 -11240 18 -11375 90 -687
302 -1264 667 -1810 498 -745 1240 -1315 2084 -1599 261 -89 546 -153 851
-193 135 -17 561 -18 11375 -18 10814 0 11240 1 11375 18 305 40 590 104 851
193 844 284 1586 854 2084 1599 365 546 577 1123 667 1810 17 135 18 561 18
11375 0 10814 -1 11240 -18 11375 -53 409 -150 777 -293 1117 -416 989 -1203
1776 -2192 2192 -328 138 -667 229 -1077 289 l-150 22 -11210 1 c-6165 0
-11230 -1 -11255 -3z m9736 -8480 c1408 -2050 2564 -3728 2570 -3729 5 -2
1446 1669 3203 3712 1757 2043 3202 3721 3211 3729 15 13 127 15 885 13 l868
-3 -3694 -4294 c-2032 -2362 -3693 -4298 -3692 -4302 1 -4 1806 -2632 4011
-5841 2204 -3208 4011 -5839 4015 -5845 7 -10 -585 -13 -2946 -13 l-2955 0
-2695 3922 c-1483 2158 -2702 3931 -2709 3941 -13 17 -309 -324 -3404 -3922
l-3389 -3941 -874 0 c-815 0 -873 1 -860 17 8 9 1752 2037 3876 4506 l3862
4490 -73 106 c-414 599 -7676 11173 -7676 11176 0 3 1329 5 2953 5 l2952 0
2561 -3727z"/>
<path d="M7450 23915 c0 -2 1632 -2339 3627 -5192 1994 -2854 4776 -6833 6181
-8843 1405 -2010 2562 -3663 2570 -3672 14 -17 92 -18 1359 -18 740 0 1343 4
1341 8 -1 5 -2119 3034 -4705 6733 -2585 3698 -5371 7683 -6190 8854 l-1489
2130 -1347 3 c-741 1 -1347 0 -1347 -3z"/>
</g>
</svg>
