<?xml version="1.0" standalone="no"?>
<!DOCTYPE svg PUBLIC "-//W3C//DTD SVG 20010904//EN"
 "http://www.w3.org/TR/2001/REC-SVG-20010904/DTD/svg10.dtd">
<svg version="1.0" xmlns="http://www.w3.org/2000/svg"
 width="64.000000pt" height="64.000000pt" viewBox="0 0 64.000000 64.000000"
 preserveAspectRatio="xMidYMid meet">

<g transform="translate(0.000000,64.000000) scale(0.100000,-0.100000)"
fill="#000000" stroke="none">
<path d="M81 530 c-18 -4 -39 -14 -47 -22 -23 -22 -37 -126 -31 -228 10 -180
10 -180 317 -180 317 0 315 -2 315 210 0 233 11 224 -295 227 -124 1 -240 -2
-259 -7z m324 -209 c0 -9 -128 -91 -141 -91 -2 0 -4 41 -4 91 l0 91 73 -41
c39 -22 72 -45 72 -50z"/>
</g>
</svg>
